<svg xmlns="http://www.w3.org/2000/svg" viewBox="-40 -44 80 80">
    <!-- Tiny sage fig leaf, echoing the /notes inline leaf + home canopy palette. -->
    <path
        d="M 0 -34
           C 8 -30, 14 -22, 16 -12
           C 24 -14, 30 -8, 28 0
           C 34 4, 32 14, 22 16
           C 20 24, 10 28, 2 22
           C -2 30, -14 28, -16 18
           C -26 18, -30 8, -24 0
           C -30 -6, -28 -18, -18 -18
           C -14 -28, -6 -32, 0 -34 Z"
        fill="#577043"
        stroke="#2a3b20"
        stroke-width="2.2"
        stroke-linejoin="round"
    />
    <path
        d="M 0 -30 L 0 22 M 0 -6 L -14 8 M 0 -6 L 14 8 M 0 8 L -10 20 M 0 8 L 10 20"
        stroke="#2a3b20"
        stroke-width="1.6"
        fill="none"
        stroke-linecap="round"
        opacity="0.7"
    />
</svg>
